<svg fill="#5465FF" height="231px" width="231px" version="1.1" id="Capa_1" xmlns="http://www.w3.org/2000/svg" xmlns:xlink="http://www.w3.org/1999/xlink" viewBox="-49 -49 588.00 588.00" xml:space="preserve" transform="matrix(1, 0, 0, 1, 0, 0)rotate(0)" stroke="#5465FF"><g id="SVGRepo_bgCarrier" stroke-width="0" transform="translate(0,0), scale(1)"></g><g id="SVGRepo_tracerCarrier" stroke-linecap="round" stroke-linejoin="round" stroke="#5465FF" stroke-width="9.8"> <g> <path d="M172.774,144.2c-17.72,0-32.135,14.415-32.135,32.135c0,17.705,14.415,32.121,32.135,32.121 c17.705,0,32.12-14.415,32.12-32.121C204.895,158.615,190.479,144.2,172.774,144.2z M172.774,193.143 c-9.271,0-16.823-7.537-16.823-16.808c0-9.271,7.552-16.823,16.823-16.823c9.271,0,16.808,7.552,16.808,16.823 C189.582,185.606,182.045,193.143,172.774,193.143z"></path> <path d="M231.557,150.196l16.912-20.651l-26.857-26.857l-21.713,17.78c-1.735-0.748-3.499-1.406-5.279-1.989l-2.826-28.143h-38.057 l-2.826,28.143c-1.78,0.583-3.544,1.241-5.279,1.989l-21.728-17.78l-26.827,26.857l16.897,20.651 c-1.062,2.123-2.004,4.307-2.826,6.52l-26.423,2.647v37.952l26.468,2.647c0.808,2.213,1.75,4.381,2.811,6.49l-16.912,20.681 l26.812,26.857l21.728-17.78c1.735,0.748,3.499,1.406,5.279,1.974l2.826,28.143h38.057l2.826-28.143 c1.779-0.568,3.544-1.226,5.279-1.974l21.713,17.78l26.857-26.842l-16.927-20.696c1.062-2.108,2.004-4.277,2.811-6.49l26.468-2.647 v-37.952l-26.438-2.647C233.575,154.503,232.633,152.319,231.557,150.196z M245.508,183.468l-22.909,2.273l-1.391,5.084 c-1.196,4.396-3.02,8.583-5.383,12.426l-2.886,4.636l14.894,18.214l-7.238,7.252l-18.662-15.268l-4.501,2.363 c-3.664,1.929-7.567,3.365-11.604,4.292l-5.383,1.211l-2.497,25.062h-10.363l-2.497-25.062l-5.383-1.211 c-4.023-0.912-7.925-2.363-11.589-4.292l-4.501-2.363l-18.662,15.268l-7.252-7.238l14.909-18.229l-2.886-4.636 c-2.363-3.843-4.187-8.03-5.383-12.426l-1.391-5.084l-22.909-2.273V173.21l22.864-2.288l1.391-5.069 c1.181-4.351,3.006-8.538,5.428-12.456l2.856-4.65l-14.864-18.184l7.238-7.238l18.662,15.268l4.501-2.363 c3.694-1.944,7.596-3.395,11.589-4.307l5.383-1.211l2.497-25.062h10.363l2.497,25.062l5.383,1.211 c3.978,0.912,7.896,2.363,11.619,4.307l4.486,2.363l18.662-15.268l7.238,7.238l-14.894,18.199l2.886,4.65 c2.423,3.903,4.247,8.09,5.413,12.412l1.376,5.099l22.894,2.288V183.468z"></path> <path d="M369.066,167.475c-20.323-8.411-28.969-14.484-28.969-26.637c0-9.347,6.774-20.089,24.767-20.089 c14.952,0,24.525,5.137,29.436,7.944l5.839-15.42c-6.774-3.976-16.355-7.71-30.372-8.177V82.433h-14.484v23.597 c-21.493,3.5-35.275,18.218-35.275,37.614c0,20.323,14.718,31.073,38.549,40.413c17.283,7.008,26.396,14.952,26.396,27.807 c0,13.315-11.218,22.896-27.799,22.896c-13.089,0-25.234-4.443-33.646-10.049l-5.605,15.654 c8.178,5.839,22.194,10.048,35.743,10.275v23.597h14.718v-24.291c24.065-3.976,36.912-21.266,36.912-39.719 C405.276,189.436,393.131,177.283,369.066,167.475z"></path> <path d="M362.397,424.27H160.781V385.73h168.438v38.535h15.313v-53.848H145.469v53.852h-17.866 c-13.335,0-24.244,10.911-24.244,24.245c0,13.335,10.909,24.245,24.244,24.245h234.794c13.335,0,24.244-10.91,24.244-24.245 C386.641,435.18,375.732,424.27,362.397,424.27z M362.397,457.447H127.603c-4.841,0-8.931-4.091-8.931-8.933 c0-4.841,4.09-8.932,8.931-8.932h234.794c4.841,0,8.931,4.091,8.931,8.932C371.328,453.356,367.238,457.447,362.397,457.447z"></path> <path d="M459.375,17.241H30.625C13.78,17.241,0,31.022,0,47.866v260.312c0,16.844,13.78,30.625,30.625,30.625h428.75 c16.845,0,30.625-13.781,30.625-30.625V47.866C490,31.022,476.22,17.241,459.375,17.241z M474.688,308.178 c0,8.443-6.867,15.313-15.313,15.313H30.625c-8.445,0-15.313-6.869-15.313-15.313V47.866c0-8.443,6.867-15.313,15.313-15.313 h428.75c8.445,0,15.313,6.869,15.313,15.313V308.178z"></path> </g> </g><g id="SVGRepo_iconCarrier"> <g> <path d="M172.774,144.2c-17.72,0-32.135,14.415-32.135,32.135c0,17.705,14.415,32.121,32.135,32.121 c17.705,0,32.12-14.415,32.12-32.121C204.895,158.615,190.479,144.2,172.774,144.2z M172.774,193.143 c-9.271,0-16.823-7.537-16.823-16.808c0-9.271,7.552-16.823,16.823-16.823c9.271,0,16.808,7.552,16.808,16.823 C189.582,185.606,182.045,193.143,172.774,193.143z"></path> <path d="M231.557,150.196l16.912-20.651l-26.857-26.857l-21.713,17.78c-1.735-0.748-3.499-1.406-5.279-1.989l-2.826-28.143h-38.057 l-2.826,28.143c-1.78,0.583-3.544,1.241-5.279,1.989l-21.728-17.78l-26.827,26.857l16.897,20.651 c-1.062,2.123-2.004,4.307-2.826,6.52l-26.423,2.647v37.952l26.468,2.647c0.808,2.213,1.75,4.381,2.811,6.49l-16.912,20.681 l26.812,26.857l21.728-17.78c1.735,0.748,3.499,1.406,5.279,1.974l2.826,28.143h38.057l2.826-28.143 c1.779-0.568,3.544-1.226,5.279-1.974l21.713,17.78l26.857-26.842l-16.927-20.696c1.062-2.108,2.004-4.277,2.811-6.49l26.468-2.647 v-37.952l-26.438-2.647C233.575,154.503,232.633,152.319,231.557,150.196z M245.508,183.468l-22.909,2.273l-1.391,5.084 c-1.196,4.396-3.02,8.583-5.383,12.426l-2.886,4.636l14.894,18.214l-7.238,7.252l-18.662-15.268l-4.501,2.363 c-3.664,1.929-7.567,3.365-11.604,4.292l-5.383,1.211l-2.497,25.062h-10.363l-2.497-25.062l-5.383-1.211 c-4.023-0.912-7.925-2.363-11.589-4.292l-4.501-2.363l-18.662,15.268l-7.252-7.238l14.909-18.229l-2.886-4.636 c-2.363-3.843-4.187-8.03-5.383-12.426l-1.391-5.084l-22.909-2.273V173.21l22.864-2.288l1.391-5.069 c1.181-4.351,3.006-8.538,5.428-12.456l2.856-4.65l-14.864-18.184l7.238-7.238l18.662,15.268l4.501-2.363 c3.694-1.944,7.596-3.395,11.589-4.307l5.383-1.211l2.497-25.062h10.363l2.497,25.062l5.383,1.211 c3.978,0.912,7.896,2.363,11.619,4.307l4.486,2.363l18.662-15.268l7.238,7.238l-14.894,18.199l2.886,4.65 c2.423,3.903,4.247,8.09,5.413,12.412l1.376,5.099l22.894,2.288V183.468z"></path> <path d="M369.066,167.475c-20.323-8.411-28.969-14.484-28.969-26.637c0-9.347,6.774-20.089,24.767-20.089 c14.952,0,24.525,5.137,29.436,7.944l5.839-15.42c-6.774-3.976-16.355-7.71-30.372-8.177V82.433h-14.484v23.597 c-21.493,3.5-35.275,18.218-35.275,37.614c0,20.323,14.718,31.073,38.549,40.413c17.283,7.008,26.396,14.952,26.396,27.807 c0,13.315-11.218,22.896-27.799,22.896c-13.089,0-25.234-4.443-33.646-10.049l-5.605,15.654 c8.178,5.839,22.194,10.048,35.743,10.275v23.597h14.718v-24.291c24.065-3.976,36.912-21.266,36.912-39.719 C405.276,189.436,393.131,177.283,369.066,167.475z"></path> <path d="M362.397,424.27H160.781V385.73h168.438v38.535h15.313v-53.848H145.469v53.852h-17.866 c-13.335,0-24.244,10.911-24.244,24.245c0,13.335,10.909,24.245,24.244,24.245h234.794c13.335,0,24.244-10.91,24.244-24.245 C386.641,435.18,375.732,424.27,362.397,424.27z M362.397,457.447H127.603c-4.841,0-8.931-4.091-8.931-8.933 c0-4.841,4.09-8.932,8.931-8.932h234.794c4.841,0,8.931,4.091,8.931,8.932C371.328,453.356,367.238,457.447,362.397,457.447z"></path> <path d="M459.375,17.241H30.625C13.78,17.241,0,31.022,0,47.866v260.312c0,16.844,13.78,30.625,30.625,30.625h428.75 c16.845,0,30.625-13.781,30.625-30.625V47.866C490,31.022,476.22,17.241,459.375,17.241z M474.688,308.178 c0,8.443-6.867,15.313-15.313,15.313H30.625c-8.445,0-15.313-6.869-15.313-15.313V47.866c0-8.443,6.867-15.313,15.313-15.313 h428.75c8.445,0,15.313,6.869,15.313,15.313V308.178z"></path> </g> </g></svg>