<svg id="wave" style="transform:rotate(0deg); transition: 0.3s" viewBox="0 0 1440 130" version="1.1" xmlns="http://www.w3.org/2000/svg"><defs><linearGradient id="sw-gradient-0" x1="0" x2="0" y1="1" y2="0"><stop stop-color="rgba(84, 101, 255, 1)" offset="0%"></stop><stop stop-color="rgba(155, 177, 255, 1)" offset="100%"></stop></linearGradient></defs><path style="transform:translate(0, 0px); opacity:1" fill="url(#sw-gradient-0)" d="M0,78L30,75.8C60,74,120,69,180,67.2C240,65,300,65,360,71.5C420,78,480,91,540,82.3C600,74,660,43,720,32.5C780,22,840,30,900,47.7C960,65,1020,91,1080,86.7C1140,82,1200,48,1260,47.7C1320,48,1380,82,1440,97.5C1500,113,1560,108,1620,91C1680,74,1740,43,1800,36.8C1860,30,1920,48,1980,62.8C2040,78,2100,91,2160,91C2220,91,2280,78,2340,80.2C2400,82,2460,100,2520,97.5C2580,95,2640,74,2700,54.2C2760,35,2820,17,2880,21.7C2940,26,3000,52,3060,54.2C3120,56,3180,35,3240,30.3C3300,26,3360,39,3420,56.3C3480,74,3540,95,3600,86.7C3660,78,3720,39,3780,26C3840,13,3900,26,3960,43.3C4020,61,4080,82,4140,78C4200,74,4260,43,4290,28.2L4320,13L4320,130L4290,130C4260,130,4200,130,4140,130C4080,130,4020,130,3960,130C3900,130,3840,130,3780,130C3720,130,3660,130,3600,130C3540,130,3480,130,3420,130C3360,130,3300,130,3240,130C3180,130,3120,130,3060,130C3000,130,2940,130,2880,130C2820,130,2760,130,2700,130C2640,130,2580,130,2520,130C2460,130,2400,130,2340,130C2280,130,2220,130,2160,130C2100,130,2040,130,1980,130C1920,130,1860,130,1800,130C1740,130,1680,130,1620,130C1560,130,1500,130,1440,130C1380,130,1320,130,1260,130C1200,130,1140,130,1080,130C1020,130,960,130,900,130C840,130,780,130,720,130C660,130,600,130,540,130C480,130,420,130,360,130C300,130,240,130,180,130C120,130,60,130,30,130L0,130Z"></path></svg>